<svg xmlns="http://www.w3.org/2000/svg" data-name="Capa 1" viewBox="0 0 1920 1920"><path d="M1649.81 389.87Q1614.59 257 1518 166.47q-86-80.34-217.34-115.28-127.32-42.72-293-42.91H114v1903.44h545.74L776 1814.08l-.23-575.18 231.8-4.8c216.47 0 385.2-56.09 501.51-166.71 117.4-111.68 176.93-262.22 176.93-447.44q.04-126.33-36.2-230.08m-990.07 385V467.45h298.41c71.65 0 123.24 13.58 153.27 40.3 27.79 24.77 41.28 61.47 41.28 112.2 0 51.08-13.68 88.36-41.82 113.94-30 27.23-81.36 41-152.73 41Z"/><path d="M1581.94 182.46q-152.1-142.17-446.39-142.2H321.91v1743.51h385.8v-677.61h427.84q294.29 0 446.39-144.68T1734 572q0-247.3-152.06-389.54m-289.36 562.62q-68 61.86-206.5 61.83H707.71V339.5h378.37q138.5 0 206.5 60.6t68 171.87q.02 111.28-68 173.11" style="fill:#fff"/><path d="M731.7 1807.77H297.92V16.27h837.63c201.54 0 357.23 50 462.78 148.67C1704.3 264.05 1758 401 1758 572c0 169.29-53.68 306.19-159.54 406.89-105.54 100.39-261.3 151.29-462.93 151.29H731.7Zm-385.8-48h337.83v-677.6h451.82c188.92 0 333.54-46.46 429.86-138.07C1661.38 852.81 1710 727.6 1710 572c0-157.16-48.62-282.32-144.48-372-96.36-90.07-241-135.74-430-135.74H345.9Zm740.19-928.87H683.73V315.51h402.36c97.91 0 172.75 22.43 222.45 66.66C1359 427.18 1384.6 491 1384.6 572s-25.52 145.11-75.87 190.87C1259 808 1184.13 830.9 1086.09 830.9m-354.39-48h354.39c85.73 0 149.78-18.7 190.37-55.58s60.16-87.62 60.16-155.37-19.63-118-60-154c-40.64-36.16-104.75-54.51-190.54-54.51H731.7Z" style="fill:#f7931e"/><path d="M779.68 1807.77H345.9V16.27h837.63c201.54 0 357.23 50 462.78 148.67 106 99.11 159.69 236 159.69 407 0 169.29-53.68 306.19-159.54 406.89-105.54 100.39-261.3 151.29-462.93 151.29H779.68Zm-385.81-48H731.7v-677.6h451.83c188.92 0 333.54-46.46 429.85-138.07C1709.36 852.81 1758 727.6 1758 572c0-157.16-48.62-282.32-144.48-372-96.36-90.07-241-135.74-430-135.74H393.87Zm740.2-928.89H731.7V315.51h402.37c97.91 0 172.75 22.43 222.45 66.66 50.47 45 76.06 108.87 76.06 189.8s-25.52 145.11-75.88 190.87C1307 808 1232.1 830.9 1134.07 830.9Zm-354.39-48h354.39c85.73 0 149.78-18.7 190.37-55.58s60.16-87.58 60.16-155.3-19.63-118-60-154c-40.64-36.16-104.75-54.51-190.54-54.51H779.68Z" style="fill:#ff0"/></svg>